<svg width="149" height="58" viewBox="0 0 149 58" fill="none" xmlns="http://www.w3.org/2000/svg">
<g filter="url(#filter0_d_1_19)">
<rect x="7.53601" y="3" width="134" height="44" rx="22" fill="#8B48BF"/>
<path d="M42.7019 31.5923C41.8144 31.5923 41.0675 31.3638 40.4612 30.9069C39.8637 30.4499 39.42 29.8612 39.13 29.1407C38.84 28.4201 38.695 27.6601 38.695 26.8604C38.695 26.0432 38.84 25.2744 39.13 24.5538C39.4288 23.8245 39.8857 23.2314 40.5008 22.7745C41.1247 22.3088 41.8979 22.0759 42.8206 22.0759C43.8574 22.0759 44.6966 22.3615 45.338 22.9326C45.9883 23.495 46.4364 24.2112 46.6825 25.0811H45.2458C45.0788 24.5187 44.7932 24.0837 44.389 23.7762C43.9936 23.4686 43.4708 23.3149 42.8206 23.3149C41.9506 23.3149 41.274 23.6356 40.7907 24.2771C40.3162 24.9185 40.079 25.7884 40.079 26.8868C40.079 28.0115 40.3294 28.8902 40.8303 29.5229C41.3311 30.1556 42.0165 30.4719 42.8865 30.4719C43.4049 30.4719 43.8486 30.3621 44.2177 30.1424C44.5955 29.9227 44.8811 29.624 45.0744 29.2461C45.2677 28.8683 45.3688 28.4465 45.3776 27.9808L45.3908 27.6645H43.0183V26.6627H46.6956V31.5H45.6412V30.0238H45.5357C45.4039 30.2522 45.2633 30.4631 45.114 30.6564C44.9734 30.841 44.6966 31.0431 44.2836 31.2627C43.8706 31.4824 43.3434 31.5923 42.7019 31.5923ZM51.3724 31.5923C50.6518 31.5923 50.0455 31.4209 49.5534 31.0782C49.0614 30.7355 48.6967 30.2918 48.4595 29.747C48.2222 29.1934 48.1036 28.6047 48.1036 27.9808C48.1036 27.3569 48.2222 26.7726 48.4595 26.2278C48.6967 25.6742 49.0614 25.2261 49.5534 24.8834C50.0543 24.5407 50.665 24.3693 51.3855 24.3693C52.3345 24.3693 53.0902 24.6813 53.6526 25.3051C54.215 25.9202 54.4962 26.8165 54.4962 27.994V28.3762H49.4348V28.4685C49.4348 28.82 49.5139 29.1495 49.6721 29.457C49.8302 29.7646 50.0543 30.015 50.3443 30.2083C50.6343 30.3928 50.9682 30.4851 51.346 30.4851C51.759 30.4851 52.1149 30.384 52.4136 30.1819C52.7124 29.9711 52.9277 29.6899 53.0595 29.3384H54.4039C54.2282 29.9886 53.8811 30.529 53.3626 30.9596C52.8442 31.3814 52.1808 31.5923 51.3724 31.5923ZM53.1649 27.4404C53.1298 26.7286 52.9496 26.2146 52.6245 25.8983C52.3082 25.5731 51.8864 25.4106 51.3592 25.4106C50.7968 25.4106 50.3443 25.5951 50.0016 25.9642C49.6677 26.3332 49.4919 26.8253 49.4744 27.4404H53.1649ZM58.1479 25.6347V29.3516C58.1479 29.6767 58.1611 29.9139 58.1874 30.0633C58.2226 30.2127 58.3061 30.3313 58.4379 30.4192C58.5785 30.5071 58.8069 30.551 59.1233 30.551C59.3429 30.551 59.5582 30.5246 59.7691 30.4719V31.4341C59.7076 31.4605 59.5626 31.4868 59.3341 31.5132C59.1057 31.5395 58.8772 31.5527 58.6488 31.5527C58.0952 31.5527 57.6822 31.4736 57.4098 31.3155C57.1374 31.1485 56.9616 30.9376 56.8826 30.6828C56.8123 30.4192 56.7771 30.0765 56.7771 29.6547L56.7903 25.6347H55.5381V24.5538H56.7903V22.2736H58.1479V24.5538H59.7691V25.6347H58.1479ZM67.5168 31.6054C66.7963 31.6054 66.1768 31.4605 65.6583 31.1705C65.1487 30.8717 64.7621 30.4895 64.4984 30.0238C64.2436 29.5581 64.1162 29.0704 64.1162 28.5607V28.4948H65.6188V28.5607C65.6188 28.8419 65.6847 29.1231 65.8165 29.4043C65.9483 29.6767 66.1592 29.9095 66.4492 30.1029C66.7391 30.2874 67.1038 30.3797 67.5432 30.3797C68.0792 30.3797 68.5141 30.2435 68.848 29.9711C69.1907 29.6987 69.3621 29.3296 69.3621 28.8639C69.3621 28.4773 69.2303 28.1697 68.9667 27.9412C68.7118 27.7128 68.3867 27.559 67.9913 27.4799L66.726 27.2295C66.1724 27.1153 65.6364 26.8824 65.1179 26.5309C64.6083 26.1707 64.3535 25.5731 64.3535 24.7384C64.3535 24.2024 64.4809 23.7323 64.7357 23.3281C64.9993 22.9239 65.364 22.6163 65.8297 22.4054C66.2954 22.1857 66.827 22.0759 67.4245 22.0759C68.1099 22.0759 68.6987 22.2121 69.1907 22.4845C69.6828 22.7569 70.0519 23.1128 70.2979 23.5521C70.5527 23.9827 70.6801 24.4352 70.6801 24.9097V24.9624H69.1775V24.9229C69.1775 24.6857 69.1204 24.4396 69.0062 24.1848C68.892 23.93 68.6987 23.7147 68.4263 23.5389C68.1626 23.3544 67.8156 23.2622 67.385 23.2622C66.8753 23.2622 66.4711 23.4027 66.1724 23.6839C65.8824 23.9563 65.7374 24.299 65.7374 24.712C65.7374 25.0723 65.8604 25.3666 66.1065 25.5951C66.3613 25.8236 66.6908 25.9773 67.095 26.0564L68.2681 26.2937C68.9447 26.4343 69.5334 26.6935 70.0343 27.0713C70.5439 27.4492 70.7988 28.0335 70.7988 28.8243C70.7988 29.3691 70.6582 29.8524 70.377 30.2742C70.1046 30.696 69.7179 31.0255 69.2171 31.2627C68.725 31.4912 68.1582 31.6054 67.5168 31.6054ZM74.4048 25.6347V29.3516C74.4048 29.6767 74.4179 29.9139 74.4443 30.0633C74.4795 30.2127 74.5629 30.3313 74.6947 30.4192C74.8353 30.5071 75.0638 30.551 75.3801 30.551C75.5998 30.551 75.8151 30.5246 76.026 30.4719V31.4341C75.9645 31.4605 75.8195 31.4868 75.591 31.5132C75.3626 31.5395 75.1341 31.5527 74.9056 31.5527C74.352 31.5527 73.9391 31.4736 73.6667 31.3155C73.3943 31.1485 73.2185 30.9376 73.1394 30.6828C73.0691 30.4192 73.034 30.0765 73.034 29.6547L73.0472 25.6347H71.795V24.5538H73.0472V22.2736H74.4048V24.5538H76.026V25.6347H74.4048ZM80.1165 31.5923C79.519 31.5923 79.0049 31.4385 78.5744 31.1309C78.1438 30.8234 77.8143 30.3972 77.5858 29.8524C77.3661 29.3076 77.2563 28.6881 77.2563 27.994C77.2563 27.291 77.3705 26.6671 77.599 26.1223C77.8275 25.5775 78.157 25.1514 78.5875 24.8438C79.0269 24.5275 79.5497 24.3693 80.156 24.3693C80.7623 24.3693 81.2456 24.5099 81.6059 24.7911C81.9661 25.0723 82.2385 25.3974 82.4231 25.7665H82.5153V24.5538H83.8861V31.5H82.5153V30.1556H82.4231C82.2298 30.5422 81.9486 30.8805 81.5795 31.1705C81.2105 31.4517 80.7228 31.5923 80.1165 31.5923ZM80.5778 30.4587C81.2017 30.4587 81.6762 30.2215 82.0013 29.747C82.3352 29.2637 82.5022 28.675 82.5022 27.9808C82.5022 27.2866 82.3352 26.7023 82.0013 26.2278C81.6762 25.7533 81.2017 25.516 80.5778 25.516C79.9451 25.516 79.4662 25.7533 79.1411 26.2278C78.816 26.7023 78.6534 27.2822 78.6534 27.9676C78.6534 28.6706 78.8116 29.2637 79.1279 29.747C79.4531 30.2215 79.9363 30.4587 80.5778 30.4587ZM85.7464 24.5538H87.104V25.661H87.1831C87.2973 25.3535 87.4994 25.0942 87.7894 24.8834C88.0882 24.6637 88.4704 24.5538 88.9361 24.5538C89.0591 24.5538 89.1646 24.5582 89.2525 24.567C89.3403 24.5758 89.4282 24.5978 89.5161 24.6329L89.4633 25.9246C89.2261 25.8543 88.9801 25.8192 88.7252 25.8192C88.2068 25.8192 87.807 25.9686 87.5258 26.2673C87.2446 26.5573 87.104 27.0406 87.104 27.7172V31.5H85.7464V24.5538ZM92.6696 25.6347V29.3516C92.6696 29.6767 92.6828 29.9139 92.7092 30.0633C92.7443 30.2127 92.8278 30.3313 92.9596 30.4192C93.1002 30.5071 93.3286 30.551 93.645 30.551C93.8647 30.551 94.0799 30.5246 94.2908 30.4719V31.4341C94.2293 31.4605 94.0843 31.4868 93.8559 31.5132C93.6274 31.5395 93.3989 31.5527 93.1705 31.5527C92.6169 31.5527 92.2039 31.4736 91.9315 31.3155C91.6591 31.1485 91.4834 30.9376 91.4043 30.6828C91.334 30.4192 91.2988 30.0765 91.2988 29.6547L91.312 25.6347H90.0599V24.5538H91.312V22.2736H92.6696V24.5538H94.2908V25.6347H92.6696ZM98.8558 31.5923C98.1353 31.5923 97.529 31.4209 97.0369 31.0782C96.5448 30.7355 96.1802 30.2918 95.9429 29.747C95.7057 29.1934 95.5871 28.6047 95.5871 27.9808C95.5871 27.3569 95.7057 26.7726 95.9429 26.2278C96.1802 25.6742 96.5448 25.2261 97.0369 24.8834C97.5378 24.5407 98.1485 24.3693 98.869 24.3693C99.818 24.3693 100.574 24.6813 101.136 25.3051C101.698 25.9202 101.98 26.8165 101.98 27.994V28.3762H96.9183V28.4685C96.9183 28.82 96.9974 29.1495 97.1555 29.457C97.3137 29.7646 97.5378 30.015 97.8277 30.2083C98.1177 30.3928 98.4516 30.4851 98.8295 30.4851C99.2425 30.4851 99.5983 30.384 99.8971 30.1819C100.196 29.9711 100.411 29.6899 100.543 29.3384H101.887C101.712 29.9886 101.365 30.529 100.846 30.9596C100.328 31.3814 99.6642 31.5923 98.8558 31.5923ZM100.648 27.4404C100.613 26.7286 100.433 26.2146 100.108 25.8983C99.7916 25.5731 99.3699 25.4106 98.8426 25.4106C98.2803 25.4106 97.8277 25.5951 97.4851 25.9642C97.1511 26.3332 96.9754 26.8253 96.9578 27.4404H100.648ZM106.079 31.5923C105.482 31.5923 104.968 31.4385 104.537 31.1309C104.107 30.8234 103.777 30.3972 103.549 29.8524C103.329 29.3076 103.219 28.6881 103.219 27.994C103.219 27.291 103.329 26.6671 103.549 26.1223C103.777 25.5775 104.107 25.1514 104.537 24.8438C104.977 24.5275 105.5 24.3693 106.106 24.3693C106.712 24.3693 107.195 24.5099 107.556 24.7911C107.916 25.0723 108.188 25.3974 108.373 25.7665H108.465V21.6146H109.849V31.5H108.465V30.1556H108.373C108.18 30.5422 107.898 30.8805 107.529 31.1705C107.16 31.4517 106.677 31.5923 106.079 31.5923ZM106.528 30.4587C107.152 30.4587 107.626 30.2215 107.951 29.747C108.285 29.2725 108.452 28.6881 108.452 27.994C108.452 27.2998 108.285 26.7155 107.951 26.241C107.626 25.7665 107.152 25.5292 106.528 25.5292C105.886 25.5292 105.407 25.7665 105.091 26.241C104.775 26.7067 104.616 27.2866 104.616 27.9808C104.616 28.6838 104.775 29.2725 105.091 29.747C105.416 30.2215 105.895 30.4587 106.528 30.4587Z" fill="white"/>
</g>
<defs>
<filter id="filter0_d_1_19" x="0.536011" y="0" width="148" height="58" filterUnits="userSpaceOnUse" color-interpolation-filters="sRGB">
<feFlood flood-opacity="0" result="BackgroundImageFix"/>
<feColorMatrix in="SourceAlpha" type="matrix" values="0 0 0 0 0 0 0 0 0 0 0 0 0 0 0 0 0 0 127 0" result="hardAlpha"/>
<feOffset dy="4"/>
<feGaussianBlur stdDeviation="3.5"/>
<feColorMatrix type="matrix" values="0 0 0 0 0 0 0 0 0 0 0 0 0 0 0 0 0 0 0.25 0"/>
<feBlend mode="normal" in2="BackgroundImageFix" result="effect1_dropShadow_1_19"/>
<feBlend mode="normal" in="SourceGraphic" in2="effect1_dropShadow_1_19" result="shape"/>
</filter>
</defs>
</svg>
