<svg width="300" height="275" viewBox="0 0 300 275" fill="none" xmlns="http://www.w3.org/2000/svg">
<g filter="url(#filter0_d_1_45)">
<path d="M276 10H24C21.7909 10 20 11.7909 20 14V241C20 243.209 21.7909 245 24 245H276C278.209 245 280 243.209 280 241V14C280 11.7909 278.209 10 276 10Z" fill="black"/>
</g>
<path d="M276 10H24C21.7909 10 20 11.7909 20 14V241C20 243.209 21.7909 245 24 245H276C278.209 245 280 243.209 280 241V14C280 11.7909 278.209 10 276 10Z" fill="white"/>
<path d="M138.234 150.46H40.208C37.9989 150.46 36.208 152.251 36.208 154.46V224.793C36.208 227.002 37.9989 228.793 40.208 228.793H138.234C140.443 228.793 142.234 227.002 142.234 224.793V154.46C142.234 152.251 140.443 150.46 138.234 150.46Z" fill="#3CDDF3"/>
<path d="M59.252 209.873V205.966H63.149V204.186H59.252V200.278H57.471V204.185H53.563V205.965H57.471V209.873H59.251H59.252ZM71.516 211.911V197.805H69.358L65.925 200.802V203.176L69.239 200.199V211.91H71.515L71.516 211.911ZM77.953 212.109C78.335 212.109 78.663 211.974 78.937 211.703C79.211 211.433 79.347 211.106 79.347 210.723C79.347 210.341 79.211 210.013 78.937 209.74C78.8097 209.608 78.6567 209.504 78.4874 209.433C78.3182 209.363 78.1363 209.328 77.953 209.33C77.577 209.33 77.251 209.466 76.973 209.74C76.8398 209.867 76.7343 210.019 76.6628 210.189C76.5914 210.358 76.5557 210.54 76.558 210.724C76.558 211.1 76.697 211.424 76.974 211.698C77.251 211.972 77.577 212.108 77.953 212.108V212.109ZM86.537 212.099C87.987 212.099 89.16 211.655 90.054 210.769C90.947 209.881 91.394 208.716 91.394 207.272C91.394 205.834 90.956 204.728 90.078 203.952C89.201 203.178 87.879 202.791 86.112 202.791H84.568L84.875 199.873H90.751V197.815H82.888L82.156 204.729H85.786C87.996 204.729 89.1 205.603 89.1 207.351C89.1 208.142 88.868 208.781 88.403 209.265C87.938 209.75 87.3 209.992 86.488 209.992C85.783 209.992 85.181 209.787 84.683 209.379C84.185 208.969 83.936 208.356 83.936 207.539C83.936 207.374 83.959 207.136 84.006 206.827L81.72 206.965C81.687 207.249 81.67 207.486 81.67 207.677C81.67 208.594 81.898 209.393 82.353 210.076C82.7876 210.741 83.4017 211.269 84.124 211.599C84.85 211.932 85.654 212.099 86.538 212.099H86.537ZM95.744 203.809C96.1514 203.816 96.5558 203.739 96.932 203.582C97.3081 203.426 97.6479 203.193 97.93 202.899C98.53 202.286 98.83 201.551 98.83 200.694C98.83 199.843 98.53 199.114 97.93 198.507C97.6479 198.213 97.3081 197.981 96.932 197.824C96.5558 197.667 96.1514 197.59 95.744 197.597C94.894 197.597 94.164 197.901 93.558 198.507C93.2649 198.79 93.033 199.13 92.8765 199.506C92.72 199.882 92.6422 200.287 92.648 200.694C92.648 201.557 92.95 202.293 93.553 202.899C94.156 203.506 94.887 203.809 95.744 203.809ZM96.832 211.921L104.292 197.785H102.312L94.874 211.921H96.832ZM95.744 202.237C95.322 202.237 94.959 202.087 94.656 201.787C94.509 201.646 94.3928 201.476 94.3145 201.288C94.2362 201.1 94.1976 200.898 94.201 200.694C94.201 200.264 94.353 199.904 94.656 199.61C94.7988 199.468 94.9687 199.356 95.1555 199.28C95.3424 199.204 95.5425 199.167 95.744 199.17C96.173 199.17 96.536 199.319 96.832 199.615C97.129 199.912 97.277 200.271 97.277 200.694C97.277 201.122 97.131 201.487 96.837 201.787C96.544 202.087 96.179 202.237 95.744 202.237ZM103.529 212.079C104.38 212.079 105.104 211.776 105.701 211.169C105.99 210.884 106.218 210.543 106.372 210.168C106.526 209.792 106.602 209.389 106.596 208.983C106.596 208.126 106.296 207.395 105.696 206.792C105.416 206.501 105.079 206.27 104.707 206.114C104.334 205.959 103.933 205.881 103.529 205.887C102.672 205.887 101.94 206.188 101.333 206.792C101.039 207.075 100.807 207.416 100.65 207.793C100.494 208.17 100.416 208.575 100.423 208.983C100.423 209.84 100.725 210.571 101.328 211.174C101.932 211.777 102.666 212.079 103.529 212.079ZM103.529 210.516C103.094 210.516 102.729 210.366 102.431 210.066C102.287 209.925 102.174 209.756 102.097 209.57C102.021 209.384 101.983 209.184 101.986 208.983C101.986 208.548 102.135 208.182 102.431 207.885C102.574 207.74 102.745 207.625 102.934 207.549C103.123 207.472 103.325 207.435 103.529 207.44C103.945 207.44 104.306 207.591 104.613 207.895C104.919 208.198 105.073 208.561 105.073 208.983C105.073 209.405 104.921 209.766 104.618 210.066C104.314 210.366 103.952 210.516 103.529 210.516Z" fill="white"/>
<path d="M259.792 150.46H161.766C159.557 150.46 157.766 152.251 157.766 154.46V224.793C157.766 227.002 159.557 228.793 161.766 228.793H259.792C262.001 228.793 263.792 227.002 263.792 224.793V154.46C263.792 152.251 262.001 150.46 259.792 150.46Z" fill="#FAFAFA"/>
<path d="M179.87 212.099C180.806 212.099 181.647 211.931 182.392 211.594C183.114 211.271 183.73 210.75 184.168 210.091C184.607 209.431 184.826 208.67 184.826 207.806C184.826 206.956 184.608 206.213 184.173 205.58C183.731 204.941 183.117 204.441 182.403 204.136C182.93 203.826 183.345 203.422 183.649 202.924C183.954 202.422 184.111 201.844 184.104 201.257C184.104 200.189 183.704 199.314 182.902 198.631C182.101 197.949 181.09 197.607 179.87 197.607C178.63 197.607 177.608 197.947 176.803 198.627C175.999 199.305 175.596 200.182 175.596 201.257C175.596 201.871 175.751 202.427 176.061 202.924C176.371 203.422 176.797 203.826 177.337 204.136C176.579 204.459 175.984 204.937 175.552 205.57C175.12 206.203 174.904 206.949 174.904 207.806C174.904 208.67 175.124 209.431 175.562 210.091C176 210.75 176.618 211.27 177.342 211.589C178.091 211.929 178.933 212.099 179.87 212.099ZM179.87 203.434C179.263 203.434 178.752 203.237 178.337 202.845C178.135 202.66 177.975 202.434 177.868 202.183C177.76 201.931 177.707 201.66 177.713 201.386C177.713 200.819 177.921 200.342 178.337 199.956C178.752 199.571 179.263 199.378 179.87 199.378C180.47 199.378 180.978 199.571 181.393 199.957C181.809 200.342 182.017 200.819 182.017 201.386C182.017 201.96 181.807 202.444 181.388 202.84C180.981 203.231 180.435 203.445 179.87 203.434ZM179.87 210.041C179.098 210.041 178.459 209.814 177.95 209.359C177.443 208.904 177.189 208.297 177.189 207.539C177.189 206.794 177.443 206.197 177.951 205.749C178.459 205.299 179.098 205.076 179.87 205.076C180.628 205.076 181.261 205.3 181.77 205.748C182.277 206.197 182.531 206.794 182.531 207.538C182.531 208.291 182.277 208.896 181.769 209.354C181.261 209.812 180.629 210.041 179.869 210.041H179.87ZM190.946 212.1C191.882 212.1 192.723 211.932 193.468 211.595C194.19 211.272 194.806 210.751 195.244 210.092C195.683 209.432 195.902 208.671 195.902 207.807C195.902 206.957 195.684 206.214 195.249 205.581C194.807 204.942 194.193 204.442 193.479 204.137C194.006 203.827 194.421 203.423 194.725 202.925C195.03 202.423 195.187 201.845 195.18 201.258C195.18 200.19 194.78 199.315 193.978 198.632C193.177 197.95 192.166 197.608 190.946 197.608C189.706 197.608 188.684 197.948 187.879 198.628C187.075 199.306 186.672 200.183 186.672 201.258C186.672 201.872 186.827 202.428 187.137 202.925C187.447 203.423 187.873 203.827 188.413 204.137C187.655 204.46 187.06 204.938 186.628 205.571C186.196 206.204 185.98 206.95 185.98 207.807C185.98 208.671 186.2 209.432 186.638 210.092C187.076 210.751 187.694 211.271 188.418 211.59C189.167 211.93 190.009 212.1 190.946 212.1ZM190.946 203.435C190.339 203.435 189.828 203.238 189.412 202.846C189.21 202.661 189.051 202.435 188.943 202.184C188.836 201.932 188.783 201.66 188.789 201.387C188.789 200.82 188.997 200.343 189.412 199.957C189.828 199.572 190.339 199.379 190.946 199.379C191.546 199.379 192.054 199.572 192.469 199.958C192.885 200.343 193.092 200.82 193.092 201.387C193.092 201.961 192.883 202.445 192.464 202.841C192.057 203.232 191.511 203.446 190.946 203.435ZM190.946 210.042C190.174 210.042 189.534 209.815 189.026 209.36C188.519 208.905 188.265 208.298 188.265 207.54C188.265 206.795 188.519 206.198 189.027 205.75C189.534 205.3 190.174 205.077 190.946 205.077C191.704 205.077 192.337 205.301 192.846 205.749C193.353 206.198 193.606 206.795 193.606 207.539C193.606 208.292 193.353 208.897 192.846 209.355C192.337 209.813 191.704 210.042 190.946 210.042ZM199.381 212.11C199.764 212.11 200.092 211.975 200.366 211.704C200.639 211.434 200.776 211.107 200.776 210.724C200.776 210.342 200.639 210.014 200.366 209.741C200.239 209.609 200.085 209.505 199.916 209.434C199.747 209.363 199.564 209.328 199.381 209.331C199.006 209.331 198.679 209.467 198.402 209.741C198.269 209.868 198.163 210.02 198.092 210.19C198.02 210.359 197.985 210.541 197.987 210.725C197.987 211.101 198.125 211.425 198.402 211.699C198.679 211.973 199.006 212.109 199.382 212.109L199.381 212.11ZM212.694 211.912V209.854H206.184L210.33 205.561C210.996 204.869 211.484 204.219 211.794 203.613C212.104 203.006 212.259 202.343 212.259 201.624C212.259 200.371 211.84 199.386 211.002 198.667C210.165 197.947 209.087 197.588 207.768 197.588C206.363 197.588 205.248 197.981 204.424 198.766C203.6 199.55 203.187 200.675 203.187 202.139V202.93L205.453 203.148V202.109C205.453 201.192 205.66 200.525 206.076 200.106C206.491 199.687 207.059 199.478 207.777 199.478C208.463 199.478 209.007 199.668 209.41 200.047C209.812 200.426 210.013 200.955 210.013 201.634C210.013 202.511 209.542 203.434 208.599 204.404L202.959 210.191V211.912H212.694ZM222.396 211.912V209.152H224.335V207.104H222.395V197.806H218.926L213.495 207.095V209.152H220.123V211.912H222.398H222.396ZM220.121 207.104H215.709L220.121 199.27V207.104ZM228.25 203.81C228.657 203.817 229.062 203.74 229.438 203.583C229.814 203.427 230.154 203.194 230.436 202.9C231.036 202.287 231.336 201.552 231.336 200.695C231.336 199.844 231.036 199.115 230.436 198.508C230.154 198.214 229.814 197.981 229.438 197.825C229.062 197.668 228.657 197.591 228.25 197.598C227.399 197.598 226.67 197.902 226.063 198.508C225.77 198.791 225.538 199.131 225.381 199.507C225.225 199.883 225.147 200.288 225.153 200.695C225.153 201.558 225.455 202.294 226.058 202.9C226.662 203.507 227.392 203.81 228.25 203.81ZM229.338 211.922L236.797 197.786H234.818L227.379 211.922H229.338ZM228.25 202.238C227.828 202.238 227.465 202.088 227.161 201.788C227.014 201.647 226.898 201.477 226.819 201.289C226.741 201.101 226.703 200.899 226.706 200.695C226.706 200.265 226.858 199.905 227.161 199.611C227.304 199.469 227.474 199.356 227.661 199.281C227.848 199.205 228.048 199.168 228.25 199.171C228.678 199.171 229.041 199.32 229.338 199.616C229.635 199.913 229.783 200.272 229.783 200.695C229.783 201.123 229.636 201.488 229.343 201.788C229.049 202.088 228.685 202.238 228.25 202.238ZM236.035 212.08C236.885 212.08 237.609 211.777 238.206 211.17C238.495 210.885 238.724 210.544 238.878 210.169C239.032 209.793 239.108 209.39 239.102 208.984C239.102 208.127 238.802 207.396 238.202 206.793C237.922 206.502 237.585 206.271 237.213 206.115C236.84 205.959 236.439 205.882 236.035 205.888C235.178 205.888 234.445 206.189 233.839 206.793C233.545 207.076 233.313 207.417 233.156 207.794C233 208.171 232.922 208.576 232.929 208.984C232.929 209.841 233.23 210.572 233.834 211.175C234.437 211.778 235.171 212.08 236.034 212.08H236.035ZM236.035 210.517C235.6 210.517 235.234 210.367 234.937 210.067C234.793 209.926 234.68 209.757 234.603 209.571C234.527 209.385 234.489 209.185 234.492 208.984C234.492 208.549 234.64 208.183 234.937 207.886C235.08 207.741 235.251 207.626 235.44 207.55C235.629 207.473 235.831 207.436 236.035 207.441C236.45 207.441 236.811 207.592 237.118 207.896C237.425 208.199 237.578 208.562 237.578 208.984C237.578 209.406 237.426 209.767 237.123 210.067C236.82 210.367 236.457 210.517 236.035 210.517Z" fill="#1E272E"/>
<path d="M259.792 26.207H40.208C37.9989 26.207 36.208 27.9979 36.208 30.207V130.253C36.208 132.462 37.9989 134.253 40.208 134.253H259.792C262.001 134.253 263.792 132.462 263.792 130.253V30.207C263.792 27.9979 262.001 26.207 259.792 26.207Z" fill="#FAFAFA"/>
<path d="M64.994 111.019C66.992 111.019 68.785 110.66 70.375 109.943C71.965 109.211 73.228 108.142 74.163 106.735C75.099 105.328 75.567 103.703 75.567 101.86C75.567 100.045 75.102 98.463 74.174 97.112C73.245 95.762 71.986 94.735 70.396 94.032C71.522 93.37 72.408 92.508 73.056 91.446C73.703 90.384 74.026 89.199 74.026 87.89C74.026 85.611 73.171 83.744 71.462 82.288C69.752 80.831 67.597 80.103 64.994 80.103C62.349 80.103 60.168 80.828 58.452 82.277C56.735 83.726 55.877 85.597 55.877 87.89C55.877 89.199 56.207 90.384 56.869 91.446C57.53 92.508 58.437 93.37 59.591 94.031C57.973 94.721 56.703 95.741 55.781 97.091C54.861 98.441 54.4 100.031 54.4 101.861C54.4 103.703 54.867 105.328 55.803 106.735C56.739 108.142 58.005 109.208 59.602 109.932C61.199 110.657 62.996 111.019 64.994 111.019ZM64.994 92.533C63.699 92.533 62.609 92.114 61.723 91.277C60.836 90.44 60.393 89.403 60.393 88.165C60.393 86.955 60.836 85.938 61.723 85.115C62.609 84.292 63.699 83.881 64.993 83.881C66.274 83.881 67.357 84.292 68.243 85.115C69.13 85.938 69.573 86.955 69.573 88.165C69.573 89.389 69.127 90.423 68.233 91.267C67.34 92.111 66.26 92.533 64.993 92.533H64.994ZM64.994 106.63C63.348 106.63 61.983 106.144 60.9 105.173C59.816 104.203 59.275 102.908 59.275 101.291C59.275 99.701 59.816 98.428 60.9 97.471C61.983 96.514 63.348 96.036 64.994 96.036C66.612 96.036 67.962 96.514 69.046 97.471C70.129 98.428 70.671 99.701 70.671 101.291C70.671 102.894 70.129 104.185 69.046 105.163C67.962 106.141 66.612 106.63 64.994 106.63ZM86.731 110.618L96.46 97.745C98.232 95.354 99.119 92.927 99.119 90.465C99.119 88.495 98.64 86.719 97.684 85.136C96.749 83.5742 95.4017 82.3002 93.79 81.454C92.15 80.582 90.332 80.146 88.335 80.146C86.379 80.146 84.582 80.578 82.943 81.443C81.303 82.309 79.995 83.547 79.017 85.157C78.039 86.768 77.557 88.58 77.572 90.591C77.586 92.561 78.054 94.309 78.975 95.835C79.897 97.362 81.082 98.519 82.531 99.307C83.9673 100.092 85.5794 100.498 87.216 100.489C87.877 100.489 88.51 100.425 89.116 100.299L81.096 110.618H86.731ZM88.461 96.858C86.661 96.858 85.187 96.293 84.04 95.16C82.893 94.028 82.313 92.54 82.299 90.697C82.285 88.882 82.862 87.408 84.029 86.276C85.197 85.143 86.674 84.577 88.461 84.577C90.276 84.577 91.739 85.126 92.851 86.223C93.962 87.321 94.518 88.798 94.518 90.655C94.518 92.413 93.952 93.887 92.819 95.075C91.687 96.265 90.234 96.859 88.461 96.859V96.858ZM106.125 111.04C106.941 111.04 107.641 110.752 108.225 110.175C108.507 109.906 108.731 109.581 108.881 109.222C109.032 108.862 109.107 108.475 109.101 108.085C109.101 107.27 108.809 106.57 108.225 105.985C107.953 105.703 107.627 105.481 107.266 105.33C106.904 105.18 106.516 105.105 106.125 105.11C105.323 105.11 104.627 105.402 104.035 105.986C103.445 106.57 103.15 107.27 103.15 108.086C103.15 108.887 103.445 109.58 104.036 110.164C104.626 110.748 105.323 111.04 106.126 111.04H106.125ZM120.349 110.618L134.509 84.388V80.525H113.597V84.894H129.045L114.82 110.617H120.35L120.349 110.618ZM154.727 110.618V104.73H158.864V100.362H154.727V80.525H147.32L135.734 100.341V104.731H149.874V110.618H154.727ZM149.874 100.362H140.461L149.874 83.649V100.362ZM166.968 93.335C168.797 93.335 170.351 92.688 171.632 91.393C172.912 90.085 173.552 88.516 173.552 86.687C173.552 84.873 172.912 83.318 171.632 82.024C170.352 80.729 168.797 80.082 166.968 80.082C165.153 80.082 163.598 80.729 162.304 82.024C161.009 83.318 160.362 84.873 160.362 86.687C160.362 88.53 161.006 90.099 162.293 91.393C163.581 92.688 165.139 93.335 166.968 93.335ZM169.289 110.639L185.202 80.483H180.981L165.111 110.639H169.289ZM166.968 89.979C166.068 89.979 165.293 89.659 164.646 89.019C164.333 88.718 164.085 88.3555 163.918 87.9543C163.751 87.553 163.668 87.1216 163.676 86.687C163.676 85.773 163.999 85.003 164.646 84.377C164.951 84.0733 165.313 83.8336 165.712 83.6721C166.111 83.5107 166.538 83.4307 166.968 83.437C167.882 83.437 168.656 83.754 169.289 84.387C169.922 85.02 170.239 85.787 170.239 86.687C170.239 87.602 169.926 88.379 169.299 89.019C168.674 89.659 167.896 89.979 166.968 89.979ZM183.577 110.977C185.391 110.977 186.936 110.33 188.209 109.035C189.482 107.741 190.119 106.186 190.119 104.372C190.119 102.542 189.479 100.985 188.199 99.697C186.918 98.41 185.377 97.767 183.577 97.767C181.747 97.767 180.186 98.41 178.891 99.697C177.597 100.985 176.95 102.543 176.95 104.372C176.95 106.2 177.594 107.758 178.88 109.046C180.168 110.333 181.733 110.976 183.577 110.976V110.977ZM183.577 107.642C182.647 107.642 181.867 107.322 181.234 106.682C180.927 106.381 180.685 106.022 180.522 105.625C180.358 105.228 180.278 104.801 180.284 104.372C180.284 103.443 180.601 102.662 181.234 102.029C181.867 101.396 182.648 101.079 183.577 101.079C184.463 101.079 185.233 101.403 185.887 102.05C186.542 102.697 186.869 103.471 186.869 104.372C186.869 105.272 186.545 106.042 185.898 106.682C185.251 107.322 184.477 107.642 183.577 107.642Z" fill="#343A40"/>
<defs>
<filter id="filter0_d_1_45" x="0" y="0" width="300" height="275" filterUnits="userSpaceOnUse" color-interpolation-filters="sRGB">
<feFlood flood-opacity="0" result="BackgroundImageFix"/>
<feColorMatrix in="SourceAlpha" type="matrix" values="0 0 0 0 0 0 0 0 0 0 0 0 0 0 0 0 0 0 127 0" result="hardAlpha"/>
<feOffset dy="10"/>
<feGaussianBlur stdDeviation="10"/>
<feColorMatrix type="matrix" values="0 0 0 0 0.311766 0 0 0 0 0.336514 0 0 0 0 0.386011 0 0 0 0.03 0"/>
<feBlend mode="normal" in2="BackgroundImageFix" result="effect1_dropShadow_1_45"/>
<feBlend mode="normal" in="SourceGraphic" in2="effect1_dropShadow_1_45" result="shape"/>
</filter>
</defs>
</svg>
